<svg width="60.75751953125px" height="131.60498046875px" xmlns="http://www.w3.org/2000/svg" viewBox="219.621240234375 9.197509765625 60.75751953125 131.60498046875" style="background: none;" preserveAspectRatio="xMidYMid"><defs><filter id="editing-hover" x="-100%" y="-100%" width="300%" height="300%"><feFlood flood-color="rgba(100%,100%,100%,0)" result="flood"></feFlood><feComposite operator="in" in2="SourceAlpha" in="flood" result="shadow"></feComposite><feOffset dx="-0.6" dy="-0.7" in="SourceGraphic" result="offset-1"></feOffset><feOffset dx="0.6" dy="0.7" in="shadow" result="offset-2"></feOffset><feMerge><feMergeNode in="offset-2"></feMergeNode><feMergeNode in="offset-1"></feMergeNode></feMerge></filter></defs><g filter="url(#editing-hover)"><g transform="translate(234.17999958992004, 94.98500061035156)"><path d="M19.53-4.34L28.42-4.34L28.42 0L4.69 0L4.69-4.34L14.63-4.34L14.63-34.30L14.63-34.30Q14.07-33.46 12.71-32.48L12.71-32.48L12.71-32.48Q11.34-31.50 9.70-30.66L9.70-30.66L9.70-30.66Q8.05-29.82 6.30-29.26L6.30-29.26L6.30-29.26Q4.55-28.70 3.22-28.70L3.22-28.70L3.22-33.32L3.22-33.32Q4.83-33.32 6.76-34.23L6.76-34.23L6.76-34.23Q8.68-35.14 10.40-36.33L10.40-36.33L10.40-36.33Q12.11-37.52 13.30-38.57L13.30-38.57L13.30-38.57Q14.49-39.62 14.63-39.97L14.63-39.97L19.53-39.97L19.53-4.34Z" fill="#ffffff"></path></g></g><style>text {
  font-size: 64px;
  font-family: Arial Black;
  dominant-baseline: central;
  text-anchor: middle;
}</style></svg>