<svg width="69.59755859375px" height="131.60498046875px" xmlns="http://www.w3.org/2000/svg" viewBox="215.201220703125 9.197509765625 69.59755859375 131.60498046875" style="background: none;" preserveAspectRatio="xMidYMid"><defs><filter id="editing-hover" x="-100%" y="-100%" width="300%" height="300%"><feFlood flood-color="rgba(100%,100%,100%,0)" result="flood"></feFlood><feComposite operator="in" in2="SourceAlpha" in="flood" result="shadow"></feComposite><feOffset dx="-0.6" dy="-0.7" in="SourceGraphic" result="offset-1"></feOffset><feOffset dx="0.6" dy="0.7" in="shadow" result="offset-2"></feOffset><feMerge><feMergeNode in="offset-2"></feMergeNode><feMergeNode in="offset-1"></feMergeNode></feMerge></filter></defs><g filter="url(#editing-hover)"><g transform="translate(231.9049997329712, 95.33499908447266)"><path d="M33.11 0L3.08 0L3.08 0Q3.08-2.38 3.50-4.80L3.50-4.80L3.50-4.80Q3.92-7.21 5.15-9.59L5.15-9.59L5.15-9.59Q6.37-11.97 8.65-14.18L8.65-14.18L8.65-14.18Q10.92-16.38 14.70-18.34L14.70-18.34L14.70-18.34Q16.73-19.39 18.94-20.41L18.94-20.41L18.94-20.41Q21.14-21.42 23.00-22.68L23.00-22.68L23.00-22.68Q24.85-23.94 26.04-25.52L26.04-25.52L26.04-25.52Q27.23-27.09 27.23-29.19L27.23-29.19L27.23-29.19Q27.23-30.52 26.64-31.82L26.64-31.82L26.64-31.82Q26.04-33.11 24.89-34.13L24.89-34.13L24.89-34.13Q23.73-35.14 22.02-35.77L22.02-35.77L22.02-35.77Q20.30-36.40 17.99-36.40L17.99-36.40L17.99-36.40Q15.68-36.40 13.86-35.74L13.86-35.74L13.86-35.74Q12.04-35.07 10.68-34.16L10.68-34.16L10.68-34.16Q9.31-33.25 8.33-32.24L8.33-32.24L8.33-32.24Q7.35-31.22 6.86-30.59L6.86-30.59L3.71-34.02L3.71-34.02Q4.13-34.44 5.32-35.56L5.32-35.56L5.32-35.56Q6.51-36.68 8.44-37.80L8.44-37.80L8.44-37.80Q10.36-38.92 12.95-39.80L12.95-39.80L12.95-39.80Q15.54-40.67 18.76-40.67L18.76-40.67L18.76-40.67Q21.98-40.67 24.50-39.80L24.50-39.80L24.50-39.80Q27.02-38.92 28.77-37.38L28.77-37.38L28.77-37.38Q30.52-35.84 31.43-33.85L31.43-33.85L31.43-33.85Q32.34-31.85 32.34-29.68L32.34-29.68L32.34-29.68Q32.34-26.81 31.08-24.71L31.08-24.71L31.08-24.71Q29.82-22.61 27.97-21.07L27.97-21.07L27.97-21.07Q26.11-19.53 24.01-18.45L24.01-18.45L24.01-18.45Q21.91-17.36 20.23-16.59L20.23-16.59L20.23-16.59Q17.99-15.61 15.86-14.39L15.86-14.39L15.86-14.39Q13.72-13.16 12.04-11.69L12.04-11.69L12.04-11.69Q10.36-10.22 9.28-8.40L9.28-8.40L9.28-8.40Q8.19-6.58 8.19-4.34L8.19-4.34L33.11-4.34L33.11 0Z" fill="#ffffff"></path></g></g><style>text {
  font-size: 64px;
  font-family: Arial Black;
  dominant-baseline: central;
  text-anchor: middle;
}</style></svg>