<svg width="70.87255859375px" height="131.60498046875px" xmlns="http://www.w3.org/2000/svg" viewBox="214.563720703125 9.197509765625 70.87255859375 131.60498046875" style="background: none;" preserveAspectRatio="xMidYMid"><defs><filter id="editing-hover" x="-100%" y="-100%" width="300%" height="300%"><feFlood flood-color="rgba(100%,100%,100%,0)" result="flood"></feFlood><feComposite operator="in" in2="SourceAlpha" in="flood" result="shadow"></feComposite><feOffset dx="-0.6" dy="-8.9" in="SourceGraphic" result="offset-1"></feOffset><feOffset dx="0.6" dy="8.9" in="shadow" result="offset-2"></feOffset><feMerge><feMergeNode in="offset-2"></feMergeNode><feMergeNode in="offset-1"></feMergeNode></feMerge></filter></defs><g filter="url(#editing-hover)"><g transform="translate(231.5899999141693, 100.30500030517578)"><path d="M24.01-16.52L24.01-16.52L24.01-16.52Q28.63-15.75 31.40-12.32L31.40-12.32L31.40-12.32Q34.16-8.89 34.16-3.85L34.16-3.85L34.16-3.85Q34.16-0.70 33.01 1.93L33.01 1.93L33.01 1.93Q31.85 4.55 29.72 6.41L29.72 6.41L29.72 6.41Q27.58 8.26 24.61 9.28L24.61 9.28L24.61 9.28Q21.63 10.29 17.99 10.29L17.99 10.29L17.99 10.29Q12.67 10.29 8.68 8.16L8.68 8.16L8.68 8.16Q4.69 6.02 2.66 2.24L2.66 2.24L5.95-0.77L5.95-0.77Q7.42 2.31 10.43 4.13L10.43 4.13L10.43 4.13Q13.44 5.95 17.99 5.95L17.99 5.95L17.99 5.95Q23.24 5.95 26.25 3.40L26.25 3.40L26.25 3.40Q29.26 0.84 29.26-3.92L29.26-3.92L29.26-3.92Q29.26-8.75 26.11-11.55L26.11-11.55L26.11-11.55Q22.96-14.35 17.01-14.35L17.01-14.35L15.26-14.35L15.26-18.41L17.15-18.41L17.15-18.41Q22.54-18.41 25.41-20.90L25.41-20.90L25.41-20.90Q28.28-23.38 28.28-27.37L28.28-27.37L28.28-27.37Q28.28-29.47 27.51-31.08L27.51-31.08L27.51-31.08Q26.74-32.69 25.38-33.78L25.38-33.78L25.38-33.78Q24.01-34.86 22.16-35.42L22.16-35.42L22.16-35.42Q20.30-35.98 18.13-35.98L18.13-35.98L18.13-35.98Q14.14-35.98 11.10-34.20L11.10-34.20L11.10-34.20Q8.05-32.41 6.51-29.26L6.51-29.26L3.43-32.20L3.43-32.20Q4.27-34.02 5.81-35.53L5.81-35.53L5.81-35.53Q7.35-37.03 9.31-38.08L9.31-38.08L9.31-38.08Q11.27-39.13 13.65-39.73L13.65-39.73L13.65-39.73Q16.03-40.32 18.55-40.32L18.55-40.32L18.55-40.32Q21.77-40.32 24.47-39.41L24.47-39.41L24.47-39.41Q27.16-38.50 29.12-36.86L29.12-36.86L29.12-36.86Q31.08-35.21 32.17-32.90L32.17-32.90L32.17-32.90Q33.25-30.59 33.25-27.79L33.25-27.79L33.25-27.79Q33.25-25.69 32.62-23.77L32.62-23.77L32.62-23.77Q31.99-21.84 30.80-20.34L30.80-20.34L30.80-20.34Q29.61-18.83 27.90-17.82L27.90-17.82L27.90-17.82Q26.18-16.80 24.01-16.52Z" fill="#ffffff"></path></g></g><style>text {
  font-size: 64px;
  font-family: Arial Black;
  dominant-baseline: central;
  text-anchor: middle;
}</style></svg>